<svg xmlns="http://www.w3.org/2000/svg" xmlns:xlink="http://www.w3.org/1999/xlink" width="500" zoomAndPan="magnify" viewBox="0 0 375 375" height="500" preserveAspectRatio="xMidYMid meet" version="1.0">
  <defs><g/></defs>
  <!-- Removed white background rectangles for dark background compatibility -->
  <path stroke-linecap="butt" transform="matrix(1.297919, 0, 0, 1.297919, 18.078442, -151.782412)" fill="none" stroke-linejoin="miter" d="M 40.100001 298.85968 C 38.968382 298.85968 37.785599 298.432313 36.557672 297.583599 C 35.423043 296.828183 34.384723 295.928305 33.4397 294.889984 C 32.587977 293.851664 31.832561 292.717035 31.173453 291.489108 C 30.983846 290.920289 30.818317 290.378556 30.676865 289.857891 C 30.535412 289.340236 30.559489 288.891802 30.746086 288.512589 L 43.359425 230.405757 L 78.08147 251.948653 L 74.397689 268.528678 L 102.459433 268.528678 L 106.853486 248.261862 L 48.463749 207.445326 L 62.777526 141.688027 L 158.155556 141.688027 C 159.383483 141.688027 160.566266 142.06423 161.700894 142.819646 C 162.832513 143.575062 163.873844 144.47494 164.818866 145.513261 C 165.66758 146.551581 166.422996 147.68621 167.085114 148.914137 C 167.464326 150.142064 167.605779 151.183394 167.509471 152.032109 L 155.606403 206.313707 L 120.884358 184.770811 L 123.574963 172.01602 L 95.940585 172.01602 L 92.681161 186.895606 L 150.929446 227.853594 L 135.48104 298.85968 Z M 40.100001 298.85968 " stroke="#ffffff" stroke-width="11.247381" stroke-opacity="1" stroke-miterlimit="4"/>
  <g fill="#fbbf24" fill-opacity="1">
    <g transform="translate(50.62782, 236.295405)">
      <g>
        <path d="M 19.5 -0.1875 C 18.03125 -0.1875 16.5 -0.738281 14.90625 -1.84375 C 13.425781 -2.820312 12.078125 -3.984375 10.859375 -5.328125 C 9.753906 -6.679688 8.769531 -8.15625 7.90625 -9.75 C 7.664062 -10.488281 7.453125 -11.191406 7.265625 -11.859375 C 7.078125 -12.535156 7.109375 -13.117188 7.359375 -13.609375 L 23.734375 -89.03125 L 68.796875 -61.0625 L 64.015625 -39.546875 L 100.4375 -39.546875 L 106.140625 -65.859375 L 30.34375 -118.828125 L 48.921875 -204.171875 L 172.71875 -204.171875 C 174.3125 -204.171875 175.847656 -203.679688 177.328125 -202.703125 C 178.796875 -201.722656 180.144531 -200.5625 181.375 -199.21875 C 182.476562 -197.863281 183.457031 -196.390625 184.3125 -194.796875 C 184.800781 -193.203125 184.984375 -191.851562 184.859375 -190.75 L 169.40625 -120.296875 L 124.34375 -148.265625 L 127.84375 -164.8125 L 91.96875 -164.8125 L 87.734375 -145.5 L 163.34375 -92.34375 L 143.296875 -0.1875 Z M 19.5 -0.1875 "/>
      </g>
    </g>
  </g>
  <path stroke-linecap="butt" transform="matrix(1.297919, 0, 0, 1.297919, 170.997972, -151.782412)" fill="none" stroke-linejoin="miter" d="M 93.739346 213.68127 L 102.810356 172.01602 L 71.913545 172.01602 L 61.425001 219.775761 L 50.370648 227.287785 L 55.616425 246.278519 L 44.134705 298.85968 L 4.59425 298.85968 L 34.214981 163.510819 L 17.349041 141.688027 L 137.390949 141.688027 C 138.618876 141.688027 139.798649 142.06423 140.933278 142.819646 C 142.067906 143.575062 143.106227 144.47494 144.051249 145.513261 C 144.996272 146.647889 145.703534 147.779508 146.176045 148.914137 C 146.744864 150.331671 146.931461 151.369991 146.744864 152.032109 L 129.168653 232.816466 L 68.937026 262.720102 L 60.007468 230.688661 Z M 93.739346 213.68127 " stroke="#ffffff" stroke-width="11.247381" stroke-opacity="1" stroke-miterlimit="4"/>
  <g fill="#3f3f46" fill-opacity="1">
    <g transform="translate(176.777769, 236.295405)">
      <g>
        <path d="M 115.890625 -110.734375 L 127.65625 -164.8125 L 87.5625 -164.8125 L 73.953125 -102.828125 L 59.59375 -93.078125 L 66.40625 -68.421875 L 51.5 -0.1875 L 0.1875 -0.1875 L 38.625 -175.84375 L 16.734375 -204.171875 L 172.546875 -204.171875 C 174.140625 -204.171875 175.671875 -203.679688 177.140625 -202.703125 C 178.609375 -201.722656 179.957031 -200.5625 181.1875 -199.21875 C 182.414062 -197.738281 183.332031 -196.265625 183.9375 -194.796875 C 184.675781 -192.953125 184.925781 -191.601562 184.6875 -190.75 L 161.875 -85.90625 L 83.6875 -47.09375 L 72.109375 -88.65625 Z M 115.890625 -110.734375 "/>
      </g>
    </g>
  </g>
  <g fill="#fbbf24" fill-opacity="1">
    <g transform="translate(55.535578, 291.757468)">
      <g>
        <path d="M 9.046875 -10.21875 C 7.296875 -10.21875 5.816406 -10.617188 4.609375 -11.421875 C 3.003906 -12.585938 2.023438 -13.738281 1.671875 -14.875 C 0.578125 -18.320312 0.953125 -21.492188 2.796875 -24.390625 C 6.441406 -29.585938 13.007812 -30.566406 22.5 -27.328125 L 20.796875 -20.046875 C 12.992188 -21.734375 9.28125 -21.40625 9.65625 -19.0625 C 9.863281 -18.113281 10.644531 -17.710938 12 -17.859375 C 12.613281 -17.921875 13.222656 -17.960938 13.828125 -17.984375 C 14.429688 -18.015625 15.003906 -18.019531 15.546875 -18 C 17.367188 -17.945312 18.847656 -17.53125 19.984375 -16.75 C 21.617188 -15.632812 22.597656 -14.488281 22.921875 -13.3125 C 24.054688 -9.875 23.679688 -6.710938 21.796875 -3.828125 C 18.097656 1.441406 11.128906 2.363281 0.890625 -1.0625 L 2.59375 -8.265625 C 11.15625 -6.703125 15.285156 -7 14.984375 -9.15625 C 14.765625 -10.082031 13.984375 -10.484375 12.640625 -10.359375 C 12.046875 -10.316406 11.453125 -10.28125 10.859375 -10.25 C 10.265625 -10.226562 9.660156 -10.21875 9.046875 -10.21875 Z M 9.046875 -10.21875 "/>
      </g>
    </g>
    <g transform="translate(79.988171, 291.757468)">
      <g>
        <path d="M 8.375 -28.1875 C 11.5 -28.5625 14.28125 -28.5625 16.71875 -28.1875 C 21.664062 -27.1875 24.207031 -23.859375 24.34375 -18.203125 C 24.25 -11.742188 21.207031 -7.546875 15.21875 -5.609375 C 13.875 -5.203125 12.140625 -4.960938 10.015625 -4.890625 C 10.015625 -4.066406 10.003906 -3.222656 9.984375 -2.359375 C 9.972656 -1.492188 9.96875 -0.613281 9.96875 0.28125 C 8.757812 0.519531 7.421875 0.703125 5.953125 0.828125 C 4.492188 0.960938 2.898438 1.050781 1.171875 1.09375 C 1.003906 -4.03125 0.921875 -8.921875 0.921875 -13.578125 C 0.921875 -18.242188 0.976562 -22.707031 1.09375 -26.96875 C 1.550781 -27.320312 3.976562 -27.726562 8.375 -28.1875 Z M 10.046875 -12.421875 C 13.753906 -12.773438 15.789062 -13.890625 16.15625 -15.765625 C 16.4375 -17.910156 15.984375 -19.328125 14.796875 -20.015625 C 13.878906 -20.515625 12.269531 -20.5625 9.96875 -20.15625 C 10 -18.945312 10.019531 -17.695312 10.03125 -16.40625 C 10.039062 -15.125 10.046875 -13.796875 10.046875 -12.421875 Z M 10.046875 -12.421875 "/>
      </g>
    </g>
    <g transform="translate(105.221544, 291.757468)">
      <g>
        <path d="M 9.515625 -29.3125 L 9.546875 -8.9375 C 14.109375 -9.4375 17.8125 -9.757812 20.65625 -9.90625 C 20.726562 -7.039062 20.691406 -4.390625 20.546875 -1.953125 C 15.929688 -1.265625 9.425781 -0.660156 1.03125 -0.140625 C 0.914062 -4.398438 0.875 -8.890625 0.90625 -13.609375 C 0.9375 -18.328125 1.023438 -23.328125 1.171875 -28.609375 C 4.203125 -29.242188 6.984375 -29.476562 9.515625 -29.3125 Z M 9.515625 -29.3125 "/>
      </g>
    </g>
    <g transform="translate(126.83494, 291.757468)">
      <g>
        <path d="M 9.96875 -29.3125 C 10.09375 -24.695312 10.160156 -20.039062 10.171875 -15.34375 C 10.179688 -10.65625 10.140625 -5.875 10.046875 -1 C 7.421875 -0.570312 4.460938 -0.285156 1.171875 -0.140625 C 0.890625 -6.878906 0.816406 -16.332031 0.953125 -28.5 C 2.566406 -28.8125 4.117188 -29.03125 5.609375 -29.15625 C 7.097656 -29.289062 8.550781 -29.34375 9.96875 -29.3125 Z M 9.96875 -29.3125 "/>
      </g>
    </g>
    <g transform="translate(137.907812, 291.757468)">
      <g>
        <path d="M 17.859375 -20.734375 C 17.898438 -16.398438 17.921875 -12.582031 17.921875 -9.28125 C 17.921875 -5.976562 17.875 -3.171875 17.78125 -0.859375 C 15.695312 -0.523438 13.914062 -0.296875 12.4375 -0.171875 C 10.957031 -0.0546875 9.757812 -0.046875 8.84375 -0.140625 C 8.789062 -3.285156 8.753906 -6.492188 8.734375 -9.765625 C 8.710938 -13.046875 8.722656 -16.441406 8.765625 -19.953125 C 6.441406 -19.734375 3.882812 -19.519531 1.09375 -19.3125 C 0.976562 -20.539062 0.914062 -21.859375 0.90625 -23.265625 C 0.894531 -24.671875 0.945312 -26.179688 1.0625 -27.796875 C 5.375 -28.285156 9.582031 -28.71875 13.6875 -29.09375 C 17.789062 -29.476562 21.84375 -29.800781 25.84375 -30.0625 C 25.957031 -27.457031 25.921875 -24.628906 25.734375 -21.578125 C 25.117188 -21.429688 22.492188 -21.148438 17.859375 -20.734375 Z M 17.859375 -20.734375 "/>
      </g>
    </g>
  </g>
  <g fill="#3f3f46" fill-opacity="1">
    <g transform="translate(169.973703, 291.757468)">
      <g>
        <path d="M 8.375 -28.1875 C 11.5 -28.5625 14.28125 -28.5625 16.71875 -28.1875 C 21.664062 -27.1875 24.207031 -23.859375 24.34375 -18.203125 C 24.25 -11.742188 21.207031 -7.546875 15.21875 -5.609375 C 13.875 -5.203125 12.140625 -4.960938 10.015625 -4.890625 C 10.015625 -4.066406 10.003906 -3.222656 9.984375 -2.359375 C 9.972656 -1.492188 9.96875 -0.613281 9.96875 0.28125 C 8.757812 0.519531 7.421875 0.703125 5.953125 0.828125 C 4.492188 0.960938 2.898438 1.050781 1.171875 1.09375 C 1.003906 -4.03125 0.921875 -8.921875 0.921875 -13.578125 C 0.921875 -18.242188 0.976562 -22.707031 1.09375 -26.96875 C 1.550781 -27.320312 3.976562 -27.726562 8.375 -28.1875 Z M 10.046875 -12.421875 C 13.753906 -12.773438 15.789062 -13.890625 16.15625 -15.765625 C 16.4375 -17.910156 15.984375 -19.328125 14.796875 -20.015625 C 13.878906 -20.515625 12.269531 -20.5625 9.96875 -20.15625 C 10 -18.945312 10.019531 -17.695312 10.03125 -16.40625 C 10.039062 -15.125 10.046875 -13.796875 10.046875 -12.421875 Z M 10.046875 -12.421875 "/>
      </g>
    </g>
    <g transform="translate(195.207076, 291.757468)">
      <g>
        <path d="M 9.515625 -29.3125 L 9.546875 -8.9375 C 14.109375 -9.4375 17.8125 -9.757812 20.65625 -9.90625 C 20.726562 -7.039062 20.691406 -4.390625 20.546875 -1.953125 C 15.929688 -1.265625 9.425781 -0.660156 1.03125 -0.140625 C 0.914062 -4.398438 0.875 -8.890625 0.90625 -13.609375 C 0.9375 -18.328125 1.023438 -23.328125 1.171875 -28.609375 C 4.203125 -29.242188 6.984375 -29.476562 9.515625 -29.3125 Z M 9.515625 -29.3125 "/>
      </g>
    </g>
    <g transform="translate(216.820472, 291.757468)">
      <g>
        <path d="M 10.578125 -3.4375 C 10.460938 -2.894531 10.34375 -2.363281 10.21875 -1.84375 C 10.101562 -1.320312 9.984375 -0.789062 9.859375 -0.25 C 5.535156 0.03125 2.546875 -0.15625 0.890625 -0.8125 C 2.804688 -7.988281 4.429688 -13.929688 5.765625 -18.640625 C 7.097656 -23.347656 8.15625 -26.867188 8.9375 -29.203125 C 12.488281 -30.015625 15.707031 -30.3125 18.59375 -30.09375 C 20.226562 -25.90625 21.828125 -21.566406 23.390625 -17.078125 C 24.953125 -12.597656 26.488281 -7.910156 28 -3.015625 C 26.5625 -2.191406 23.488281 -1.492188 18.78125 -0.921875 C 18.613281 -1.460938 18.457031 -1.992188 18.3125 -2.515625 C 18.164062 -3.035156 18.015625 -3.546875 17.859375 -4.046875 C 16.859375 -3.972656 15.757812 -3.882812 14.5625 -3.78125 C 13.375 -3.675781 12.046875 -3.5625 10.578125 -3.4375 Z M 15.6875 -11.25 C 15.332031 -12.4375 15.003906 -13.492188 14.703125 -14.421875 C 14.410156 -15.359375 14.132812 -16.171875 13.875 -16.859375 C 13.613281 -15.867188 13.359375 -14.882812 13.109375 -13.90625 C 12.859375 -12.9375 12.601562 -11.957031 12.34375 -10.96875 Z M 15.6875 -11.25 "/>
      </g>
    </g>
    <g transform="translate(245.709312, 291.757468)">
      <g>
        <path d="M 1.0625 -27.5 L 9.09375 -29.453125 C 10.34375 -27.828125 11.648438 -26.015625 13.015625 -24.015625 C 14.390625 -22.015625 15.859375 -19.796875 17.421875 -17.359375 C 17.234375 -20.429688 17.195312 -24.265625 17.3125 -28.859375 C 21.457031 -29.210938 24.460938 -29.195312 26.328125 -28.8125 C 26.617188 -18.457031 26.617188 -9.300781 26.328125 -1.34375 C 24.910156 -0.800781 23.644531 -0.390625 22.53125 -0.109375 C 21.425781 0.171875 20.445312 0.300781 19.59375 0.28125 C 17.132812 -3.457031 13.878906 -7.914062 9.828125 -13.09375 L 9.828125 0.28125 C 5.097656 0.5 2.164062 0.460938 1.03125 0.171875 C 0.9375 -3.921875 0.894531 -8.253906 0.90625 -12.828125 C 0.914062 -17.410156 0.96875 -22.300781 1.0625 -27.5 Z M 1.0625 -27.5 "/>
      </g>
    </g>
    <g transform="translate(273.143064, 291.757468)">
      <g>
        <path d="M 9.046875 -10.21875 C 7.296875 -10.21875 5.816406 -10.617188 4.609375 -11.421875 C 3.003906 -12.585938 2.023438 -13.738281 1.671875 -14.875 C 0.578125 -18.320312 0.953125 -21.492188 2.796875 -24.390625 C 6.441406 -29.585938 13.007812 -30.566406 22.5 -27.328125 L 20.796875 -20.046875 C 12.992188 -21.734375 9.28125 -21.40625 9.65625 -19.0625 C 9.863281 -18.113281 10.644531 -17.710938 12 -17.859375 C 12.613281 -17.921875 13.222656 -17.960938 13.828125 -17.984375 C 14.429688 -18.015625 15.003906 -18.019531 15.546875 -18 C 17.367188 -17.945312 18.847656 -17.53125 19.984375 -16.75 C 21.617188 -15.632812 22.597656 -14.488281 22.921875 -13.3125 C 24.054688 -9.875 23.679688 -6.710938 21.796875 -3.828125 C 18.097656 1.441406 11.128906 2.363281 0.890625 -1.0625 L 2.59375 -8.265625 C 11.15625 -6.703125 15.285156 -7 14.984375 -9.15625 C 14.765625 -10.082031 13.984375 -10.484375 12.640625 -10.359375 C 12.046875 -10.316406 11.453125 -10.28125 10.859375 -10.25 C 10.265625 -10.226562 9.660156 -10.21875 9.046875 -10.21875 Z M 9.046875 -10.21875 "/>
      </g>
    </g>
  </g>
</svg>